<svg width="238" height="153" viewBox="0 0 238 153" fill="none" xmlns="http://www.w3.org/2000/svg">
<path d="M63.1289 124.134L0.000244141 91.7007L53.2831 64.4801L121.045 93.2451L63.1289 124.134Z" fill="#062134"/>
<path d="M0.000244141 91.7007V87.2604H1.54468L2.50995 90.5424L0.000244141 91.7007Z" fill="#062134"/>
<path d="M57.0857 105.763V118.173L69.9186 111.789V99.3772L57.0857 105.763Z" fill="#9FA1A3"/>
<path d="M10.3633 82.4153V94.823L57.0854 118.173V105.763L10.3633 82.4153Z" fill="#2F7AA7"/>
<path d="M10.3633 82.4133L57.0854 105.763L69.9183 99.3792L23.1962 76.0294L10.3633 82.4133Z" fill="#F3F3F3"/>
<path d="M57.0077 104.341V106.379L70.362 99.7351V97.6967L57.0077 104.341Z" fill="#B1B2B6"/>
<path d="M9.92151 80.8024V82.8388L57.0079 106.379V104.343L9.92151 80.8024Z" fill="#329FD2"/>
<path d="M9.92322 80.8004L57.0076 104.341L70.3619 97.6967L23.2755 74.158L9.92322 80.8004Z" fill="#2696CD"/>
<path d="M90.9866 88.8448V101.257L103.819 94.8707V82.461L90.9866 88.8448Z" fill="#9FA1A3"/>
<path d="M44.2646 65.497V77.9067L90.9868 101.256V88.8468L44.2646 65.497Z" fill="#0F4E73"/>
<path d="M44.2671 65.4971L90.9893 88.8448L103.82 82.461L57.1 59.1132L44.2671 65.4971Z" fill="#F3F3F3"/>
<path d="M90.9092 87.4249V89.4633L104.263 82.8189V80.7805L90.9092 87.4249Z" fill="#B1B2B6"/>
<path d="M43.8226 63.8842V65.9226L90.909 89.4633V87.4248L43.8226 63.8842Z" fill="#0A3955"/>
<path d="M43.8247 63.8842L90.9111 87.4248L104.263 80.7805L57.179 57.2398L43.8247 63.8842Z" fill="#2696CD"/>
<path d="M57.1017 105.763V118.173L44.2668 111.789V99.3771L57.1017 105.763Z" fill="#2F7AA7"/>
<path d="M103.824 82.4152V94.8229L57.1016 118.173V105.763L103.824 82.4152Z" fill="#0F4E73"/>
<path d="M103.822 82.4132L57.0997 105.763L44.2668 99.3791L90.989 76.0294L103.822 82.4132Z" fill="#F3F3F3"/>
<path d="M57.1791 104.341V106.379L43.8248 99.7351V97.6967L57.1791 104.341Z" fill="#329FD2"/>
<path d="M104.265 80.8024V82.8388L57.1791 106.379V104.343L104.265 80.8024Z" fill="#0A3955"/>
<path d="M104.264 80.8004L57.1771 104.341L43.8248 97.6967L90.9092 74.158L104.264 80.8004Z" fill="#2696CD"/>
<path d="M63.1288 124.134C60.4261 123.748 53.0514 123.168 52.897 123.168L52.1248 122.203L62.7427 122.01L63.1288 124.134Z" fill="#062134"/>
<path d="M1.59647 27.538V87.3075C1.59647 87.4109 1.51885 87.5124 1.36162 87.5919C1.04916 87.747 0.545637 87.747 0.233174 87.5919C0.0719674 87.5104 -0.00565078 87.405 0.000319855 87.2976V27.538C0.000319855 27.4366 0.077938 27.3352 0.233174 27.2576C0.545637 27.1025 1.05115 27.1025 1.36162 27.2576C1.51686 27.3352 1.59448 27.4346 1.59647 27.5361V27.538Z" fill="url(#paint0_linear_3418_3165)"/>
<path d="M53.7212 62.5601V122.33C53.7212 122.433 53.6436 122.534 53.4864 122.614C53.1739 122.769 52.6704 122.769 52.3579 122.614C52.1967 122.532 52.1191 122.427 52.1251 122.32V62.5601C52.1251 62.4587 52.2027 62.3573 52.3579 62.2797C52.6704 62.1246 53.1759 62.1246 53.4864 62.2797C53.6416 62.3573 53.7192 62.4567 53.7212 62.5582V62.5601Z" fill="url(#paint1_linear_3418_3165)"/>
<path d="M107.004 35.9187V95.6881C107.004 95.7915 106.927 95.893 106.769 95.9725C106.457 96.1276 105.953 96.1276 105.641 95.9725C105.48 95.891 105.402 95.7856 105.408 95.6782V35.9187C105.408 35.8172 105.486 35.7158 105.641 35.6383C105.953 35.4831 106.459 35.4831 106.769 35.6383C106.925 35.7158 107.002 35.8153 107.004 35.9167V35.9187Z" fill="url(#paint2_linear_3418_3165)"/>
<path d="M53.4772 59.9007V81.214L0.000244141 37.4738V26.7227L53.4772 59.9007Z" fill="#329FD2"/>
<path d="M106.952 33.1781V54.4894L53.4773 81.214V59.9027L106.952 33.1781Z" fill="#0F4E73"/>
<path d="M106.951 33.1781L53.4756 59.9007L0.000610352 26.7226L53.4756 0L106.951 33.1781Z" fill="url(#paint3_linear_3418_3165)"/>
<g clip-path="url(#clip0_3418_3165)">
<g opacity="0.5">
<path d="M193.569 52.8794H193.578C193.578 52.8794 193.582 52.8774 193.586 52.8774L194.276 52.7129C194.458 52.7129 194.64 52.6297 194.778 52.4632C195.054 52.1303 195.054 51.5923 194.778 51.2594C194.64 51.0929 194.458 51.0097 194.276 51.0097L193.593 50.849C193.593 50.849 193.578 50.8452 193.57 50.8432C193.521 50.8316 193.471 50.8258 193.419 50.8258H179.729C179.509 50.8258 179.29 50.9265 179.122 51.1277C178.953 51.329 178.869 51.5942 178.869 51.8594C178.869 52.02 178.899 52.1807 178.963 52.3278C179.001 52.4226 179.057 52.5116 179.122 52.591C179.288 52.7923 179.509 52.8929 179.727 52.8929H190.962H193.415C193.465 52.8929 193.515 52.8871 193.567 52.8755L193.569 52.8794Z" fill="#0C0B14"/>
</g>
<path d="M181.278 38.6051V52.0529C181.278 52.2678 181.136 52.4845 180.854 52.6491C180.743 52.7149 180.618 52.7671 180.484 52.8058C180.279 52.8658 180.053 52.8968 179.829 52.8968C179.457 52.8968 179.087 52.8155 178.806 52.6491C178.524 52.4845 178.382 52.2697 178.382 52.0529V38.6051H181.278Z" fill="#2495CC"/>
<path d="M181.278 38.6051V52.0529C181.278 52.2678 181.136 52.4845 180.854 52.6491C180.743 52.7149 180.618 52.7671 180.484 52.8058L180.419 39.3774L181.019 37.7632L181.249 38.4406C181.249 38.4406 181.249 38.4464 181.249 38.4483V38.458C181.266 38.5083 181.274 38.5567 181.274 38.6051H181.278Z" fill="#1F6A97"/>
<path d="M181.278 41.0148V42.2729C181.278 42.4877 181.136 42.7045 180.854 42.869C180.287 43.2 179.373 43.2 178.806 42.869C178.524 42.7045 178.382 42.4896 178.382 42.2729V41.0148C178.382 41.2316 178.524 41.4484 178.806 41.6129C179.373 41.9419 180.287 41.9419 180.854 41.6129C181.136 41.4484 181.278 41.2335 181.278 41.0148Z" fill="#83D2F9"/>
<path d="M181.278 43.649V44.9071C181.278 45.1219 181.136 45.3387 180.854 45.5032C180.287 45.8342 179.373 45.8342 178.806 45.5032C178.524 45.3387 178.382 45.1238 178.382 44.9071V43.649C178.382 43.8658 178.524 44.0825 178.806 44.2471C179.373 44.5761 180.287 44.5761 180.854 44.2471C181.136 44.0825 181.278 43.8677 181.278 43.649Z" fill="#83D2F9"/>
<path d="M181.278 38.6051C181.278 38.8219 181.136 39.0386 180.854 39.2032C180.726 39.2786 180.578 39.3367 180.421 39.3774C180.256 39.4199 180.08 39.4432 179.902 39.449C179.507 39.4625 179.106 39.3793 178.808 39.2032C178.526 39.0386 178.384 38.8238 178.384 38.607C178.384 38.5567 178.392 38.5064 178.407 38.458H178.405C178.405 38.458 178.411 38.4406 178.413 38.4348L178.639 37.7632H181.021L181.251 38.4406C181.251 38.4406 181.251 38.4464 181.251 38.4483V38.458C181.268 38.5083 181.276 38.5567 181.276 38.6051H181.278Z" fill="#1A608A"/>
<path opacity="0.2" d="M181.277 38.6045C181.277 38.8212 181.135 39.0378 180.854 39.2022C180.725 39.2776 180.578 39.3357 180.421 39.3763L180.312 38.3976L181.02 37.7632L181.25 38.4401C181.25 38.4401 181.25 38.4459 181.25 38.4479V38.4575C181.267 38.5078 181.275 38.5562 181.275 38.6045H181.277Z" fill="#54162A"/>
<path d="M180.672 37.2696C180.206 36.9986 179.453 36.9986 178.987 37.2696C178.522 37.5406 178.522 37.9799 178.987 38.2528C179.453 38.5238 180.206 38.5238 180.672 38.2528C181.137 37.9819 181.137 37.5425 180.672 37.2696Z" fill="#329FD2"/>
</g>
<g clip-path="url(#clip1_3418_3165)">
<g opacity="0.5">
<path d="M139.735 84.5381H139.746C139.746 84.5381 139.75 84.5359 139.754 84.5359L140.524 84.3513C140.728 84.3513 140.931 84.258 141.085 84.0712C141.393 83.6977 141.393 83.094 141.085 82.7205C140.931 82.5338 140.728 82.4404 140.524 82.4404L139.763 82.2602C139.763 82.2602 139.746 82.2558 139.737 82.2536C139.682 82.2406 139.626 82.2341 139.568 82.2341H124.286C124.04 82.2341 123.797 82.347 123.608 82.5729C123.42 82.7987 123.326 83.0962 123.326 83.3937C123.326 83.5739 123.36 83.7542 123.431 83.9192C123.474 84.0256 123.536 84.1255 123.608 84.2145C123.794 84.4404 124.04 84.5533 124.284 84.5533H136.826H139.564C139.619 84.5533 139.675 84.5468 139.733 84.5338L139.735 84.5381Z" fill="#0C0B14"/>
</g>
<path d="M126.015 68.5231V83.6109C126.015 83.8519 125.856 84.0951 125.542 84.2797C125.418 84.3535 125.279 84.4122 125.129 84.4556C124.9 84.5229 124.648 84.5577 124.398 84.5577C123.983 84.5577 123.57 84.4665 123.255 84.2797C122.941 84.0951 122.783 83.8541 122.783 83.6109V68.5231H126.015Z" fill="#2495CC"/>
<path d="M126.015 68.523V83.6109C126.015 83.8519 125.857 84.0951 125.542 84.2797C125.418 84.3535 125.279 84.4121 125.129 84.4556L125.057 69.3895L125.726 67.5784L125.983 68.3385C125.983 68.3385 125.983 68.345 125.983 68.3472V68.358C126.002 68.4145 126.011 68.4688 126.011 68.523H126.015Z" fill="#1F6A97"/>
<path d="M126.015 71.2266V72.6381C126.015 72.8792 125.856 73.1224 125.542 73.307C124.909 73.6783 123.889 73.6783 123.255 73.307C122.941 73.1224 122.783 72.8813 122.783 72.6381V71.2266C122.783 71.4698 122.941 71.713 123.255 71.8976C123.889 72.2668 124.909 72.2668 125.542 71.8976C125.856 71.713 126.015 71.472 126.015 71.2266Z" fill="#83D2F9"/>
<path d="M126.015 74.1821V75.5936C126.015 75.8346 125.856 76.0778 125.542 76.2624C124.909 76.6337 123.889 76.6337 123.255 76.2624C122.941 76.0778 122.783 75.8368 122.783 75.5936V74.1821C122.783 74.4253 122.941 74.6685 123.255 74.8531C123.889 75.2222 124.909 75.2222 125.542 74.8531C125.856 74.6685 126.015 74.4275 126.015 74.1821Z" fill="#83D2F9"/>
<path d="M126.015 68.523C126.015 68.7663 125.857 69.0095 125.542 69.1941C125.399 69.2787 125.234 69.3439 125.059 69.3895C124.875 69.4373 124.678 69.4633 124.479 69.4698C124.038 69.485 123.591 69.3917 123.258 69.1941C122.943 69.0095 122.785 68.7684 122.785 68.5252C122.785 68.4688 122.793 68.4123 122.81 68.358H122.808C122.808 68.358 122.815 68.3385 122.817 68.332L123.069 67.5784H125.728L125.985 68.3385C125.985 68.3385 125.985 68.345 125.985 68.3472V68.358C126.004 68.4145 126.013 68.4688 126.013 68.523H126.015Z" fill="#1A608A"/>
<path opacity="0.2" d="M126.014 68.5224C126.014 68.7655 125.856 69.0085 125.542 69.193C125.398 69.2776 125.234 69.3427 125.058 69.3883L124.937 68.2902L125.728 67.5784L125.984 68.338C125.984 68.338 125.984 68.3445 125.984 68.3466V68.3575C126.003 68.4139 126.012 68.4682 126.012 68.5224H126.014Z" fill="#54162A"/>
<path d="M125.339 67.0247C124.819 66.7207 123.978 66.7207 123.458 67.0247C122.939 67.3287 122.939 67.8217 123.458 68.1278C123.978 68.4319 124.819 68.4319 125.339 68.1278C125.858 67.8238 125.858 67.3309 125.339 67.0247Z" fill="#329FD2"/>
</g>
<g clip-path="url(#clip2_3418_3165)">
<path opacity="0.5" d="M57.8326 138.221C57.6965 138.084 57.524 138.008 57.3486 137.987L57.2548 137.966L57.2216 137.96C57.1792 137.957 57.1369 137.954 57.0976 137.954L46.3507 136.788L46.2539 136.77L43.3956 136.275C42.5184 136.038 41.5444 136.263 40.8518 136.955C40.1289 137.681 39.9201 138.728 40.2196 139.641C40.3436 140.024 40.5523 140.379 40.8548 140.682C41.5051 141.338 42.4155 141.575 43.2534 141.396L46.6834 140.795L43.3078 143.402H43.7525L48.8885 140.412L48.9973 140.394C48.9973 140.394 48.9822 140.394 48.9762 140.394L57.1369 139.666C57.1702 139.666 57.2004 139.659 57.2337 139.656H57.2579C57.2579 139.656 57.2579 139.656 57.2609 139.656L57.3547 139.638C57.5331 139.614 57.7025 139.538 57.8386 139.401C58.1623 139.077 58.1623 138.549 57.8386 138.224L57.8326 138.221Z" fill="#051D2F"/>
<path d="M43.2958 135.307H41.7259L35.5222 138.904V139.814L41.7259 143.408H43.2958L49.5025 139.814V138.904L43.2958 135.307Z" fill="#B5322A"/>
<path d="M43.2958 134.897H41.7259L35.5222 138.491V139.401L41.7259 142.995H43.2958L49.5025 139.401V138.491L43.2958 134.897Z" fill="#2696CD"/>
<path opacity="0.5" d="M42.3762 141.053L47.8873 140.336L49.5025 139.402V138.491L46.2267 136.594L42.3762 141.053Z" fill="#54162A"/>
<path d="M45.4645 140.312C44.9624 140.603 44.3695 140.807 43.7374 140.925C42.222 141.214 40.4918 141.01 39.288 140.315C38.1416 139.647 37.7666 138.706 38.1628 137.863L40.9365 124.505L42.6969 124.483L43.7797 124.468L46.6502 137.996H46.6441C46.9436 138.807 46.5504 139.684 45.4645 140.312Z" fill="url(#paint4_linear_3418_3165)"/>
<path d="M45.9817 134.882C45.9817 134.718 45.9243 134.515 45.8759 134.345L45.5099 132.63C45.519 132.912 45.4464 133.194 45.2346 133.455C45.0864 133.644 44.8807 133.817 44.6146 133.968C43.3805 134.688 41.3811 134.688 40.147 133.968C39.8869 133.817 39.6812 133.644 39.53 133.462C39.3243 133.21 39.2366 132.952 39.2366 132.678L38.8888 134.354C38.8252 134.563 38.7889 134.73 38.7889 134.9C38.7889 135.437 39.1368 135.975 39.8415 136.384C41.248 137.207 43.5226 137.207 44.9291 136.384C45.6309 135.975 45.9787 135.437 45.9787 134.9V134.885L45.9817 134.882Z" fill="url(#paint5_linear_3418_3165)"/>
<path d="M44.9503 129.986L44.5631 128.144C44.5631 128.466 44.3423 128.787 43.9189 129.036C43.8947 129.048 43.8735 129.063 43.8493 129.07C43.0084 129.519 41.7169 129.519 40.876 129.07C40.8518 129.06 40.8306 129.045 40.8064 129.036C40.3739 128.787 40.1863 128.459 40.1863 128.138L39.8052 129.968C39.7599 130.138 39.7296 130.32 39.7296 130.441C39.7296 130.836 39.9534 131.146 40.4737 131.449C41.5172 132.053 43.208 132.053 44.2486 131.449C44.7718 131.146 45.032 130.751 45.032 130.353C45.032 130.229 45.0047 130.108 44.9563 129.986H44.9503Z" fill="url(#paint6_linear_3418_3165)"/>
<path d="M41.7259 142.995V143.408L35.5222 139.814V139.401L41.7259 142.995Z" fill="#2696CD"/>
<path d="M43.2958 143.408V142.995L49.5025 139.401V139.814L43.2958 143.408Z" fill="#0A3955"/>
<path d="M43.2947 142.995H41.726V143.408H43.2947V142.995Z" fill="#0F4E73"/>
<path opacity="0.5" d="M45.4645 140.312C44.9624 140.603 44.3695 140.807 43.7374 140.925L42.6938 124.483L43.7767 124.468L46.6472 137.996H46.6411C46.9406 138.807 46.5473 139.684 45.4615 140.312H45.4645Z" fill="#1B5269"/>
<path d="M43.7646 124.377L43.7555 124.353C43.7555 124.353 43.7555 124.353 43.7555 124.35L43.7253 124.259H43.7071C43.6406 124.14 43.5287 124.025 43.3653 123.931C42.8088 123.612 41.9074 123.612 41.3509 123.931C41.1845 124.025 41.0756 124.14 41.0091 124.259H40.9909L40.9637 124.35L40.9546 124.383H40.9577C40.8911 124.629 41.0212 124.89 41.3539 125.081C41.9104 125.4 42.8118 125.4 43.3684 125.081C43.7041 124.89 43.8342 124.626 43.7646 124.377Z" fill="#59C0F3"/>
<path d="M43.3351 123.788C42.7967 123.476 41.9225 123.476 41.3841 123.788C40.8457 124.101 40.8457 124.608 41.3841 124.92C41.9225 125.233 42.7967 125.233 43.3351 124.92C43.8735 124.608 43.8735 124.101 43.3351 123.788Z" fill="#2696CD"/>
</g>
<g clip-path="url(#clip3_3418_3165)">
<path opacity="0.5" d="M122.92 139.866C122.784 139.73 122.612 139.654 122.436 139.633L122.342 139.612L122.309 139.605C122.267 139.602 122.225 139.599 122.185 139.599L111.438 138.434L111.342 138.416L108.483 137.921C107.606 137.684 106.632 137.909 105.939 138.601C105.216 139.326 105.008 140.373 105.307 141.287C105.431 141.669 105.64 142.025 105.942 142.328C106.593 142.984 107.503 143.22 108.341 143.041L111.771 142.44L108.395 145.048H108.84L113.976 142.058L114.085 142.04C114.085 142.04 114.07 142.04 114.064 142.04L122.225 141.311C122.258 141.311 122.288 141.305 122.321 141.302H122.346C122.346 141.302 122.346 141.302 122.349 141.302L122.442 141.284C122.621 141.26 122.79 141.184 122.926 141.047C123.25 140.722 123.25 140.194 122.926 139.87L122.92 139.866Z" fill="#091723"/>
<path d="M108.383 136.953H106.814L100.61 140.549V141.46L106.814 145.054H108.383L114.59 141.46V140.549L108.383 136.953Z" fill="#B5322A"/>
<path d="M108.383 136.543H106.814L100.61 140.137V141.047L106.814 144.641H108.383L114.59 141.047V140.137L108.383 136.543Z" fill="#2696CD"/>
<path opacity="0.5" d="M107.464 142.698L112.975 141.982L114.59 141.047V140.137L111.314 138.24L107.464 142.698Z" fill="#54162A"/>
<path d="M110.552 141.958C110.05 142.249 109.457 142.453 108.825 142.571C107.31 142.859 105.579 142.656 104.376 141.961C103.229 141.293 102.854 140.352 103.25 139.508L106.024 126.15L107.785 126.129L108.867 126.114L111.738 139.642H111.732C112.031 140.452 111.638 141.329 110.552 141.958Z" fill="url(#paint7_linear_3418_3165)"/>
<path d="M111.069 136.528C111.069 136.364 111.012 136.16 110.964 135.991L110.598 134.276C110.607 134.558 110.534 134.84 110.322 135.101C110.174 135.289 109.968 135.462 109.702 135.614C108.468 136.333 106.469 136.333 105.235 135.614C104.975 135.462 104.769 135.289 104.618 135.107C104.412 134.855 104.324 134.597 104.324 134.324L103.976 136C103.913 136.209 103.877 136.376 103.877 136.546C103.877 137.083 104.224 137.62 104.929 138.03C106.336 138.853 108.61 138.853 110.017 138.03C110.719 137.62 111.066 137.083 111.066 136.546V136.531L111.069 136.528Z" fill="url(#paint8_linear_3418_3165)"/>
<path d="M110.038 131.632L109.651 129.79C109.651 130.111 109.43 130.433 109.007 130.682C108.982 130.694 108.961 130.709 108.937 130.715C108.096 131.164 106.805 131.164 105.964 130.715C105.939 130.706 105.918 130.691 105.894 130.682C105.462 130.433 105.274 130.105 105.274 129.783L104.893 131.614C104.848 131.784 104.817 131.966 104.817 132.087C104.817 132.482 105.041 132.791 105.561 133.095C106.605 133.699 108.296 133.699 109.336 133.095C109.859 132.791 110.12 132.397 110.12 131.999C110.12 131.875 110.092 131.753 110.044 131.632H110.038Z" fill="url(#paint9_linear_3418_3165)"/>
<path d="M106.814 144.641V145.054L100.61 141.46V141.047L106.814 144.641Z" fill="#2696CD"/>
<path d="M108.383 145.054V144.641L114.59 141.047V141.46L108.383 145.054Z" fill="#0A3955"/>
<path d="M108.382 144.641H106.814V145.053H108.382V144.641Z" fill="#0F4E73"/>
<path opacity="0.5" d="M110.552 141.958C110.05 142.249 109.457 142.453 108.825 142.571L107.781 126.129L108.864 126.114L111.735 139.642H111.729C112.028 140.452 111.635 141.329 110.549 141.958H110.552Z" fill="#1B5269"/>
<path d="M108.852 126.023L108.843 125.998C108.843 125.998 108.843 125.998 108.843 125.995L108.813 125.904H108.795C108.728 125.786 108.616 125.671 108.453 125.577C107.896 125.258 106.995 125.258 106.439 125.577C106.272 125.671 106.163 125.786 106.097 125.904H106.079L106.051 125.995L106.042 126.029H106.045C105.979 126.275 106.109 126.536 106.442 126.727C106.998 127.046 107.899 127.046 108.456 126.727C108.792 126.536 108.922 126.272 108.852 126.023Z" fill="#59C0F3"/>
<path d="M108.423 125.434C107.884 125.121 107.01 125.121 106.472 125.434C105.933 125.747 105.933 126.253 106.472 126.566C107.01 126.879 107.884 126.879 108.423 126.566C108.961 126.253 108.961 125.747 108.423 125.434Z" fill="#2696CD"/>
</g>
<g clip-path="url(#clip4_3418_3165)">
<path d="M153.505 124.299L139.119 118.046L132.685 113.424C131.082 112.175 132.925 109.496 133.663 109.072L185.864 83.3106C187.915 82.1309 202.098 71.3688 204.149 72.5485L233.016 85.1368C233.753 85.5605 230.507 89.1909 226.718 90.3271L201.716 104.379L165.321 124.923C163.27 126.103 155.694 125.201 153.506 124.3L153.505 124.299Z" fill="#072235"/>
<path d="M161.715 122.764C158.856 122.764 155.542 122.183 154.57 121.793L140.481 115.668L134.956 111.7C135.026 111.576 135.107 111.453 135.18 111.362L187.156 85.7114L187.232 85.6681C187.801 85.3407 188.796 84.6467 190.652 83.345C193.521 81.3346 200.842 76.2027 203.407 75.2963L225.371 88.993L218.892 92.7681L171.412 120.132C171.319 120.165 163.306 122.765 161.715 122.765V122.764Z" fill="#062134"/>
<path d="M225.797 84.162L221.774 81.7819L181.334 103.002L178.961 111.818L174.653 108.8L163.082 116.31L165.714 103.2L223.512 73.0352L226.357 76.012L225.797 84.162Z" fill="#0C0B14"/>
<path d="M224.006 77.6092L220.735 75.7275C218.227 74.303 214.162 76.6418 211.655 80.9498C209.147 85.2578 209.147 89.905 211.655 91.3295L214.926 93.2112L216.345 90.773C217.938 89.8145 219.519 88.1953 220.735 86.1072C221.95 84.0191 222.571 81.8543 222.608 80.0119L224.006 77.6092Z" fill="url(#paint10_linear_3418_3165)"/>
<path d="M223.712 87.8842C226.235 83.585 226.26 78.9235 223.769 77.4726C221.277 76.0216 217.213 78.3307 214.69 82.63C212.167 86.9292 212.142 91.5907 214.633 93.0416C217.124 94.4926 221.189 92.1835 223.712 87.8842Z" fill="#17171E"/>
<path d="M219.202 79.504C221.982 77.9054 224.235 79.1854 224.235 82.3628C224.235 85.5403 221.982 89.4127 219.202 91.0113C216.422 92.6098 214.169 91.3298 214.169 88.1524C214.169 84.975 216.422 81.1025 219.202 79.504Z" fill="#A9BCCD"/>
<path d="M219.202 79.8412C221.819 78.336 223.94 79.5413 223.94 82.5319C223.94 85.5226 221.818 89.1679 219.202 90.6731C216.585 92.1782 214.464 90.9729 214.464 87.9823C214.464 84.9917 216.586 81.3463 219.202 79.8412Z" fill="#283345"/>
<path d="M218.315 90.9825C217.793 91.2824 217.209 91.2136 217.105 90.5008C216.99 89.7173 216.413 89.3899 215.67 89.6858C215.187 89.8785 214.809 89.7074 214.682 89.2414C214.556 88.7745 214.714 88.1315 215.095 87.5633C215.681 86.6873 215.892 85.6659 215.62 85.0209C215.473 84.671 215.518 84.1784 215.745 83.6692C215.976 83.1521 216.349 82.7067 216.745 82.4796C216.895 82.3931 217.045 82.34 217.192 82.3203C217.391 82.2938 217.599 82.2191 217.812 82.0962C218.335 81.7954 218.824 81.2468 219.152 80.593C219.387 80.1221 219.72 79.7456 220.089 79.5342C220.611 79.2344 221.194 79.3032 221.299 80.0159C221.413 80.7995 221.991 81.1268 222.734 80.8309C223.216 80.6382 223.595 80.8093 223.722 81.2753C223.848 81.7413 223.69 82.3852 223.309 82.9535C222.723 83.8294 222.512 84.8509 222.784 85.4958C222.931 85.8458 222.886 86.3383 222.659 86.8476C222.428 87.3657 222.055 87.81 221.659 88.0371C221.509 88.1236 221.359 88.1767 221.212 88.1964C221.013 88.2229 220.804 88.2977 220.591 88.4205C220.068 88.7214 219.58 89.27 219.252 89.9237C219.016 90.3946 218.684 90.7712 218.315 90.9825Z" fill="#283345"/>
<path d="M220.089 79.8205C220.491 79.5895 220.964 79.6101 221.05 80.202C221.183 81.1005 221.843 81.4751 222.695 81.1359C223.084 80.9816 223.376 81.1133 223.478 81.4889C223.58 81.8644 223.457 82.3619 223.151 82.82C222.479 83.8237 222.238 84.9956 222.549 85.7349C222.709 86.1144 222.556 86.5686 222.451 86.8045C222.267 87.2165 221.971 87.5704 221.658 87.7493C221.54 87.8171 221.419 87.8604 221.302 87.8751C221.074 87.9056 220.834 87.9912 220.59 88.1317C219.991 88.4768 219.431 89.105 219.056 89.8551C218.868 90.2287 218.606 90.5266 218.315 90.6947C217.913 90.9257 217.441 90.9051 217.354 90.3133C217.221 89.4147 216.561 89.0401 215.709 89.3793C215.32 89.5337 215.028 89.4019 214.926 89.0264C214.824 88.6508 214.947 88.1534 215.253 87.6952C215.925 86.6915 216.167 85.5196 215.855 84.7803C215.695 84.4008 215.848 83.9466 215.953 83.7107C216.137 83.2988 216.433 82.9448 216.746 82.7659C216.864 82.6981 216.985 82.6548 217.102 82.6401C217.33 82.6096 217.57 82.5241 217.814 82.3835C218.414 82.0384 218.973 81.4102 219.348 80.6601C219.536 80.2865 219.798 79.9886 220.089 79.8205ZM220.089 79.2454C219.677 79.4823 219.258 79.9198 218.956 80.5244C218.672 81.0927 218.249 81.5577 217.814 81.8074C217.636 81.9096 217.456 81.9755 217.284 81.9981C217.102 82.0217 216.92 82.0895 216.746 82.1898C215.776 82.7472 214.996 84.332 215.387 85.2581C215.618 85.8057 215.436 86.6846 214.939 87.4288C213.946 88.9133 214.373 90.4932 215.634 89.9918C216.265 89.7401 216.761 90.0213 216.858 90.6878C216.98 91.5117 217.641 91.6591 218.317 91.2708C218.729 91.0339 219.148 90.5964 219.45 89.9918C219.734 89.4235 220.157 88.9585 220.592 88.7078C220.77 88.6056 220.95 88.5397 221.122 88.5171C221.304 88.4935 221.486 88.4257 221.66 88.3254C222.63 87.768 223.41 86.1832 223.019 85.2571C222.788 84.7085 222.97 83.8306 223.467 83.0864C224.461 81.6029 224.033 80.0221 222.772 80.5234C222.141 80.7751 221.645 80.4939 221.548 79.8274C221.426 79.0036 220.765 78.8561 220.089 79.2444V79.2454Z" fill="#A9BCCD"/>
<path d="M219.202 88.9918C217.401 90.028 215.936 89.1953 215.936 87.1367C215.936 85.078 217.401 82.5593 219.202 81.5241C221.003 80.4879 222.468 81.3206 222.468 83.3792C222.468 85.4379 221.003 87.9566 219.202 88.9918Z" fill="#A9BCCD"/>
<path d="M219.202 81.7032C220.919 80.7151 222.311 81.5066 222.311 83.4688C222.311 85.4311 220.919 87.824 219.202 88.8121C217.485 89.8001 216.093 89.0087 216.093 87.0464C216.093 85.0841 217.485 82.6912 219.202 81.7032ZM219.202 81.3443C218.287 81.8703 217.428 82.7718 216.781 83.8827C216.135 84.9936 215.779 86.1812 215.779 87.2273C215.779 88.2733 216.135 89.0509 216.781 89.4177C217.428 89.7844 218.287 89.6978 219.202 89.1719C220.117 88.6459 220.976 87.7444 221.623 86.6335C222.269 85.5226 222.625 84.335 222.625 83.2889C222.625 82.2429 222.269 81.4653 221.623 81.0986C220.976 80.7309 220.117 80.8184 219.202 81.3443Z" fill="#A9BCCD"/>
<path d="M219.202 84.4391C219.597 84.2122 219.918 84.3939 219.918 84.8459C219.918 85.2978 219.597 85.8489 219.202 86.0759C218.806 86.3028 218.486 86.1211 218.486 85.6692C218.486 85.2172 218.806 84.6661 219.202 84.4391Z" fill="#283345"/>
<path d="M173.374 113.075C175.897 108.776 175.922 104.114 173.431 102.663C170.94 101.212 166.875 103.522 164.352 107.821C161.829 112.12 161.804 116.782 164.295 118.232C166.787 119.683 170.851 117.374 173.374 113.075Z" fill="#0C0B14"/>
<path d="M164.323 118.249L167.595 120.131L176.675 104.529L173.402 102.647L166.891 108.15L164.323 118.249Z" fill="url(#paint11_linear_3418_3165)"/>
<path d="M176.646 114.957C179.169 110.658 179.194 105.996 176.703 104.545C174.211 103.094 170.147 105.403 167.624 109.703C165.101 114.002 165.076 118.663 167.567 120.114C170.058 121.565 174.123 119.256 176.646 114.957Z" fill="#17171E"/>
<path d="M172.134 106.576C174.914 104.977 177.167 106.257 177.167 109.435C177.167 112.612 174.914 116.485 172.134 118.083C169.354 119.682 167.101 118.402 167.101 115.224C167.101 112.047 169.354 108.174 172.134 106.576Z" fill="#A9BCCD"/>
<path d="M172.134 106.913C174.751 105.408 176.872 106.613 176.872 109.604C176.872 112.595 174.75 116.24 172.134 117.745C169.517 119.25 167.396 118.045 167.396 115.054C167.396 112.064 169.518 108.418 172.134 106.913Z" fill="#283345"/>
<path d="M171.247 118.054C170.725 118.354 170.142 118.286 170.037 117.573C169.923 116.789 169.345 116.462 168.602 116.758C168.12 116.95 167.741 116.779 167.614 116.313C167.488 115.846 167.646 115.203 168.027 114.635C168.613 113.759 168.824 112.738 168.552 112.093C168.405 111.743 168.45 111.25 168.677 110.741C168.908 110.224 169.281 109.779 169.677 109.552C169.827 109.465 169.977 109.412 170.124 109.392C170.323 109.366 170.531 109.291 170.745 109.168C171.268 108.867 171.756 108.319 172.084 107.665C172.32 107.194 172.652 106.818 173.021 106.606C173.543 106.306 174.126 106.375 174.231 107.088C174.345 107.871 174.923 108.199 175.666 107.903C176.148 107.71 176.527 107.881 176.654 108.347C176.78 108.813 176.622 109.457 176.241 110.025C175.655 110.901 175.444 111.923 175.716 112.568C175.863 112.918 175.818 113.41 175.591 113.92C175.36 114.437 174.987 114.882 174.591 115.109C174.441 115.196 174.291 115.249 174.144 115.268C173.945 115.295 173.737 115.37 173.523 115.493C173 115.793 172.512 116.342 172.184 116.996C171.948 117.467 171.616 117.843 171.247 118.054Z" fill="#283345"/>
<path d="M173.021 106.892C173.423 106.661 173.896 106.682 173.982 107.274C174.115 108.172 174.775 108.547 175.628 108.208C176.016 108.054 176.308 108.185 176.41 108.561C176.512 108.936 176.389 109.434 176.083 109.892C175.411 110.896 175.17 112.068 175.481 112.807C175.641 113.186 175.488 113.641 175.383 113.876C175.199 114.288 174.903 114.642 174.59 114.821C174.472 114.889 174.352 114.932 174.234 114.947C174.006 114.978 173.766 115.063 173.523 115.204C172.923 115.549 172.363 116.177 171.988 116.927C171.801 117.301 171.538 117.599 171.247 117.767C170.845 117.998 170.373 117.977 170.286 117.385C170.154 116.487 169.493 116.112 168.641 116.451C168.252 116.606 167.96 116.474 167.858 116.098C167.757 115.723 167.879 115.225 168.185 114.767C168.857 113.763 169.099 112.592 168.787 111.852C168.627 111.473 168.78 111.019 168.886 110.783C169.069 110.371 169.365 110.017 169.678 109.838C169.796 109.77 169.917 109.727 170.034 109.712C170.262 109.682 170.502 109.596 170.746 109.455C171.346 109.11 171.905 108.482 172.28 107.732C172.468 107.358 172.73 107.061 173.021 106.892ZM173.021 106.317C172.609 106.554 172.19 106.992 171.888 107.596C171.604 108.165 171.181 108.63 170.746 108.88C170.568 108.983 170.388 109.048 170.216 109.071C170.034 109.095 169.853 109.162 169.678 109.263C168.708 109.82 167.928 111.405 168.319 112.331C168.55 112.88 168.368 113.758 167.871 114.502C166.878 115.986 167.306 117.566 168.566 117.065C169.197 116.813 169.693 117.094 169.79 117.761C169.912 118.585 170.573 118.732 171.249 118.344C171.661 118.107 172.08 117.669 172.382 117.065C172.666 116.496 173.089 116.031 173.525 115.781C173.702 115.679 173.882 115.613 174.055 115.59C174.236 115.566 174.418 115.499 174.592 115.398C175.562 114.841 176.342 113.256 175.951 112.33C175.72 111.782 175.902 110.904 176.399 110.16C177.393 108.676 176.965 107.096 175.705 107.597C175.073 107.849 174.578 107.568 174.48 106.901C174.358 106.077 173.697 105.93 173.021 106.318V106.317Z" fill="#A9BCCD"/>
<path d="M172.134 116.064C170.333 117.1 168.868 116.267 168.868 114.209C168.868 112.15 170.333 109.631 172.134 108.596C173.935 107.56 175.4 108.393 175.4 110.451C175.4 112.51 173.935 115.029 172.134 116.064Z" fill="#A9BCCD"/>
<path d="M172.134 108.775C173.851 107.787 175.244 108.579 175.244 110.541C175.244 112.503 173.851 114.896 172.134 115.884C170.417 116.872 169.025 116.081 169.025 114.118C169.025 112.156 170.417 109.763 172.134 108.775ZM172.134 108.416C171.219 108.942 170.36 109.844 169.713 110.955C169.067 112.066 168.711 113.253 168.711 114.299C168.711 115.345 169.067 116.123 169.713 116.49C170.36 116.857 171.219 116.77 172.134 116.244C173.049 115.718 173.908 114.816 174.555 113.705C175.201 112.595 175.557 111.407 175.557 110.361C175.557 109.315 175.201 108.537 174.555 108.171C173.908 107.804 173.049 107.89 172.134 108.416Z" fill="#A9BCCD"/>
<path d="M172.134 111.511C172.529 111.283 172.85 111.466 172.85 111.918C172.85 112.37 172.529 112.921 172.134 113.148C171.738 113.375 171.418 113.193 171.418 112.741C171.418 112.289 171.738 111.738 172.134 111.511Z" fill="#283345"/>
<path d="M152.719 74.3121L153.113 73.9631L153.755 73.7881L155.887 74.8499L156.194 75.5479V77.4247L155.625 78.7765L154.646 79.3349L153.083 77.7737L152.383 76.3914V75.2284L152.719 74.3121Z" fill="#1F6A97"/>
<path d="M154.174 78.2869L154.953 77.8317L156.116 77.3804L156.656 78.0637L156.782 79.4705L155.459 79.8775L154.646 79.3349L154.174 78.2869Z" fill="#2D4ED1"/>
<path d="M152.719 74.3121L152.646 75.0102L154.003 76.4209L154.544 76.6392L155.668 75.7957L156.194 75.5479L155.887 74.8499L153.755 73.7881L153.113 73.9631L152.719 74.3121Z" fill="#2495CC"/>
<path d="M227.636 72.3056V78.629L225.935 81.4653V81.0907L225.801 80.1951L225.275 77.8582L224.233 76.8977L223.782 76.4819L221.793 76.1742L221.214 76.4101L219.187 77.2349L217.34 78.5513L215.516 80.4212L215.006 81.2136L214.06 82.6784L212.912 85.4695L212.785 86.2668L212.464 88.289V91.783L210.096 93.3353L178.962 111.819L178.809 110.882L178.764 108.866L178.757 108.721L178.733 107.761L178.554 106.554L178.02 104.981L177.716 104.625L176.691 103.734L175.115 103.42L172.812 103.947L170.446 105.547L168.261 108.121L166.79 110.841L166.495 111.387L165.488 114.296L165.405 115.184L165.331 115.987L165.319 116.118V118.937L163.059 120.067L161.648 120.549L157.082 121.067L149.769 119.957L145.565 118.111L136.692 112.942L133.991 110.822L132.729 107.567L132.877 104.623L132.543 99.8534L132.682 99.1377L133.025 97.3759L134.497 95.0047L136.033 92.5312L140.747 88.6852C140.747 88.6852 154.112 79.4391 154.223 78.4963L198.81 53.4908L202.559 52.9187L206.494 52.5117C206.494 52.5117 210.986 53.5469 212.433 54.1023C213.882 54.6578 219.264 57.2463 220.786 58.6512C222.309 60.057 224.945 62.8304 224.945 62.8304C224.945 62.8304 226.116 65.1653 226.668 66.3136C226.669 66.3155 226.67 66.3165 226.671 66.3185C226.674 66.3273 226.679 66.3362 226.682 66.343H226.683C226.689 66.3558 226.694 66.3666 226.698 66.3775C226.704 66.3873 226.707 66.3971 226.711 66.406C226.719 66.4227 226.726 66.4374 226.733 66.4532C226.739 66.465 226.744 66.4758 226.75 66.4866C226.756 66.4984 226.761 66.5102 226.767 66.521C226.784 66.5583 226.8 66.5928 226.816 66.6252C226.82 66.635 226.825 66.6449 226.829 66.6537C226.854 66.7078 226.875 66.756 226.893 66.7953C226.896 66.8041 226.901 66.812 226.904 66.8189C226.907 66.8277 226.911 66.8356 226.914 66.8415C226.919 66.8543 226.925 66.8661 226.928 66.8759C226.93 66.8828 226.933 66.8887 226.935 66.8946C226.936 66.8965 226.937 66.8985 226.937 66.9005C226.939 66.9064 226.941 66.9113 226.943 66.9152H226.944C226.947 66.9251 226.948 66.9319 226.948 66.9349C226.948 67.046 226.8 70.5586 226.8 70.5586L227.635 72.3056H227.636Z" fill="#2495CC"/>
<path d="M198.81 53.4908L154.225 78.4914C154.208 79.3398 153.89 79.5649 153.364 79.9326L170.026 76.4553L203.781 53.8035L203.864 52.783L202.56 52.9177L198.811 53.4908H198.81Z" fill="#0179BB"/>
<path d="M227.636 72.3056V78.629L225.935 81.4653V81.0907L225.801 80.1951L225.275 77.8582L224.234 76.8977L223.783 76.4819L221.793 76.1742L221.214 76.4101L219.187 77.2349L217.341 78.5513L215.516 80.4212L215.006 81.2136L214.061 82.6784L212.912 85.4695L212.786 86.2668L212.464 88.289V91.783L210.097 93.3353L178.962 111.819L178.809 110.882L178.765 108.866L178.758 108.721L178.733 107.761L178.554 106.554L178.021 104.981L177.717 104.625L176.691 103.734L175.115 103.42L172.812 103.947L170.447 105.547L168.261 108.121L166.791 110.841L166.495 111.387L165.488 114.296L165.405 115.184L165.331 115.987L165.319 116.118V118.937L163.059 120.067L161.648 120.549L157.082 121.067L149.77 119.957L145.566 118.113L136.692 112.943L133.991 110.823L132.729 107.568L132.877 104.624L132.544 99.8544L132.683 99.1386L133.025 97.3769L134.498 95.0056L134.669 100.881L135.114 101.408H135.115L135.119 101.412C135.241 101.501 137.265 102.991 141.824 105.679C143.112 106.438 148.741 109.379 149.176 109.605L149.192 109.614L149.202 109.62L150.232 110.007L159.198 108.953L165.769 104.183L177.018 96.3614L226.637 66.3293C226.637 66.3293 226.643 66.3253 226.645 66.3234C226.646 66.3224 226.647 66.3214 226.647 66.3214L226.681 66.3489H226.682C226.688 66.3617 226.693 66.3725 226.697 66.3833C226.703 66.3932 226.707 66.403 226.711 66.4119C226.719 66.4286 226.726 66.4433 226.732 66.459C226.738 66.4708 226.743 66.4817 226.749 66.4925C226.755 66.5043 226.76 66.5161 226.766 66.5269C226.784 66.5642 226.8 66.5986 226.815 66.6311C226.819 66.6409 226.824 66.6508 226.828 66.6596C226.853 66.7137 226.875 66.7618 226.892 66.8012C226.895 66.81 226.9 66.8179 226.903 66.8248C226.906 66.8336 226.91 66.8415 226.913 66.8474C226.918 66.8602 226.924 66.872 226.927 66.8818C226.93 66.8887 226.933 66.8946 226.935 66.9005C226.936 66.9024 226.937 66.9044 226.937 66.9064C226.939 66.9123 226.941 66.9172 226.943 66.9211H226.944C226.947 66.9309 226.948 66.9378 226.948 66.9408C226.948 67.0519 226.8 70.5645 226.8 70.5645L227.634 72.3115L227.636 72.3056Z" fill="#2495CC"/>
<path d="M227.636 72.3056V78.629L225.935 81.4653V81.0907L225.801 80.1951L225.275 77.8582L224.234 76.8977L223.783 76.4819L221.793 76.1741L221.214 76.4101L219.187 77.2349L217.341 78.5513L215.516 80.4212L215.006 81.2136L214.061 82.6784L212.912 85.4695L212.786 86.2668L212.464 88.289V91.783L210.097 93.3353L178.962 111.819L178.809 110.882L178.765 108.866L178.758 108.721L178.733 107.761L178.554 106.554L178.021 104.981L177.717 104.625L176.691 103.734L175.115 103.42L172.812 103.947L170.447 105.547L168.261 108.121L166.791 110.841L166.495 111.387L165.488 114.296L165.405 115.184L165.331 115.987L165.319 116.118V118.937L163.059 120.067L161.648 120.549L157.082 121.067L149.77 119.957L145.566 118.113L136.692 112.943L133.991 110.823L132.729 107.568L132.877 104.624L132.544 99.8543L132.683 99.1386L133.025 97.3769L134.498 95.0056L135.113 101.408H135.114L135.118 101.412L142.065 105.723L149.175 109.604L149.191 109.613L149.201 109.619L159.197 108.953C161.743 107.888 164.989 106.209 168.6 104.176C168.603 104.175 168.606 104.174 168.609 104.172C168.643 104.153 168.679 104.133 168.716 104.112C178.831 98.4121 191.789 89.979 200.376 84.5296C211.888 77.2261 226.192 66.6557 226.636 66.3283C226.639 66.3263 226.642 66.3244 226.644 66.3224C226.645 66.3214 226.646 66.3204 226.646 66.3204L226.666 66.3175C226.666 66.3175 226.668 66.3204 226.669 66.3224C226.672 66.3312 226.677 66.3401 226.68 66.347H226.681C226.687 66.3597 226.692 66.3706 226.696 66.3814C226.702 66.3912 226.706 66.401 226.71 66.4099C226.718 66.4266 226.725 66.4413 226.732 66.4571C226.737 66.4689 226.742 66.4797 226.748 66.4905C226.754 66.5023 226.759 66.5141 226.765 66.5249C226.783 66.5623 226.799 66.5967 226.814 66.6291C226.818 66.639 226.823 66.6488 226.827 66.6576C226.852 66.7117 226.874 66.7599 226.891 66.7992C226.894 66.808 226.899 66.8159 226.902 66.8228C226.905 66.8316 226.909 66.8395 226.912 66.8454C226.917 66.8582 226.923 66.87 226.926 66.8798C226.929 66.8867 226.932 66.8926 226.934 66.8985C226.935 66.9005 226.936 66.9024 226.936 66.9044C226.938 66.9103 226.94 66.9152 226.942 66.9191H226.943C226.946 66.929 226.947 66.9359 226.947 66.9388C226.947 67.0499 226.799 70.5625 226.799 70.5625L227.633 72.3095L227.636 72.3056Z" fill="#0179BB"/>
<path d="M134.586 102.111V102.503C134.586 102.503 134.08 102.026 133.765 100.865C133.45 99.703 133.38 98.9479 133.378 97.8793C133.376 96.8107 133.557 96.5197 133.557 96.5197H133.801L133.905 99.0069L134.586 102.112V102.111Z" fill="#627EFA"/>
<path d="M218.994 67.1089L218.393 66.9251C218.393 66.9251 201.186 66.1209 200.852 66.1759C200.517 66.231 184.87 78.1591 184.87 78.1591L177.938 94.2742C177.938 94.2742 172.725 99.5152 172.614 99.6813C172.502 99.8475 179.729 95.8 179.729 95.8L182.996 94.0432L211.934 76.2725L226.951 66.9339L226.322 65.5969L224.946 62.8284L221.847 65.8869L218.996 67.1089H218.994Z" fill="#0179BB"/>
<path d="M218.994 67.1089L205.974 79.0281L195.098 85.9443L179.525 95.8L177.019 96.3555L177.938 94.2752L153.186 81.6825L153.506 79.8353C153.506 79.8353 161.389 72.5268 161.483 72.4462C161.753 72.2181 165.187 69.1026 165.187 69.1026L178.356 60.7403C178.356 60.7403 185.484 56.912 188.825 55.9142C192.167 54.9154 197.518 55.0491 197.518 55.0491L202.153 55.9879C202.153 55.9879 206.83 57.7998 209.02 59.0208C211.21 60.2409 217.521 64.9382 217.521 64.9382L218.995 67.1099L218.994 67.1089Z" fill="#0F4E73"/>
<path d="M218.393 66.925L209.817 66.5918L206.81 67.0351L200.072 69.2265L194.002 72.7215L188.406 76.7994L185.761 79.5728L177.938 94.2742L175.293 94.7736C175.293 94.7736 172.537 95.0509 170.811 94.58C169.085 94.1081 164.045 91.9167 164.045 91.9167C164.045 91.9167 158.143 88.8376 155.943 87.1181C153.744 85.3987 152.519 83.8454 152.519 83.8454C152.519 83.8454 152.325 82.7915 152.352 82.4307C152.38 82.0699 153.451 80.1587 153.451 80.1587C153.451 80.1587 163.739 70.3374 165.995 68.8116C168.25 67.2858 170.896 65.6214 170.896 65.6214L176.501 62.1451L182.515 58.9648L188.789 56.4126L192.649 56.2465L198.394 55.226L202.154 55.9879L209.021 59.0208L217.522 64.9382L218.395 66.926L218.393 66.925Z" fill="#0C0B14"/>
<path d="M184.518 79.7861L177.761 92.9706L175.571 93.2665C175.571 93.2665 171.228 92.0091 167.664 90.271C164.1 88.5329 155.74 83.2388 154.893 81.2844C154.931 79.7311 155.153 79.4725 155.153 79.4725C155.153 79.4725 163.617 70.4672 165.956 69.3209C168.703 71.466 172.563 73.8697 172.563 73.8697L179.691 77.6419L184.517 79.7871L184.518 79.7861Z" fill="#181E2E"/>
<path d="M165.956 69.3199C165.704 69.4428 165.378 69.6522 165.002 69.9196L157.198 78.629L168.579 71.237C167.693 70.6216 166.775 69.9599 165.956 69.3199Z" fill="#2B3447"/>
<path d="M178.8 91.0713L178.099 90.618L177.867 89.0008L169.224 84.2141L166.792 84.9091L158.489 79.3339L155.044 79.7674C154.982 80.0211 154.913 80.4763 154.893 81.2834C155.74 83.2378 164.1 88.5319 167.664 90.27C171.227 92.0082 175.571 93.2656 175.571 93.2656L177.761 92.9696L178.8 91.0703V91.0713Z" fill="#2B3447"/>
<path d="M186.319 74.4803C188.441 73.1098 194.789 68.9031 196.423 67.8207C196.602 67.7027 196.594 67.4382 196.408 67.3311L184.755 60.584C184.358 60.3539 183.869 60.35 183.468 60.5732L172.659 66.5996C172.466 66.7078 172.461 66.984 172.651 67.0981L184.942 74.5009C185.368 74.7575 185.902 74.7496 186.32 74.4803H186.319Z" fill="#181E2E"/>
<path d="M179.525 95.8C179.525 95.8 179.562 94.4129 179.599 94.3018C179.636 94.1907 182.382 88.3294 184.034 85.6111C185.686 82.8928 187.005 80.1194 188.786 78.2328C190.568 76.3462 195.45 73.4254 195.45 73.4254C195.45 73.4254 200.406 70.3561 203.617 69.4871C206.828 68.618 210.039 68.618 210.039 68.618L211.06 69.0437L212.267 72.3351L212.174 72.982L205.975 79.0291L197.064 84.5031L179.524 95.802L179.525 95.8Z" fill="#0C0B14"/>
<path d="M194.866 73.7832L195.84 85.262C195.84 85.262 198.392 83.9801 198.299 83.6635C198.206 83.3469 196.125 73.0203 196.125 73.0203L194.866 73.7832Z" fill="#0C0B14"/>
<path d="M194.532 74.4695L195.034 85.2611L181.335 93.7473L181.78 90.6957C181.78 90.6957 184.37 85.0654 185.678 82.9842C186.987 80.9039 189.617 78.1561 189.617 78.1561L194.532 74.4685V74.4695Z" fill="#181E2E"/>
<path d="M196.584 73.4716L198.302 82.9852L205.69 78.4235L207.367 76.4947L205.975 69.5323C205.975 69.5323 203.998 70.0042 201.631 70.9194C199.265 71.8347 196.584 73.4716 196.584 73.4716Z" fill="#181E2E"/>
<path d="M206.783 69.5323L207.924 75.9392C207.924 75.9392 211.46 73.0272 211.349 72.9437C211.237 72.8601 210.124 69.3189 210.124 69.3189C210.124 69.3189 208.147 69.199 206.783 69.5313V69.5323Z" fill="#181E2E"/>
<path d="M207.061 66.7864L203.747 63.6523L198.597 60.0738L192.973 57.6052L189.297 56.4677L196.943 55.7215L201.84 56.5542L208.708 59.5861L216.796 65.064L217.487 66.639L207.061 66.7864Z" fill="#181E2E"/>
<path d="M161.789 112.886C162.813 112.649 164.571 111.908 166.792 110.838L166.497 111.384L165.49 114.293L165.407 115.181L165.333 115.984L165.321 116.115V118.934L163.061 120.064L161.65 120.546L157.084 121.064L149.772 119.954L145.568 118.11L136.694 112.94L133.993 110.82L132.731 107.565L132.879 104.621L132.546 99.8514L132.685 99.1357C132.942 100.457 133.523 102.074 134.698 103.476C136.771 105.949 146.586 112.389 149.177 112.888C151.392 113.315 155.384 113.865 159.63 113.283C160.345 113.186 161.067 113.056 161.789 112.888V112.886Z" fill="#176A9A"/>
<path d="M215.006 81.2136L214.061 82.6784L212.912 85.4695L212.786 86.2668L212.464 88.289V91.783L210.097 93.3354L178.962 111.819L178.809 110.882L178.765 108.866L178.758 108.721L178.733 107.761L178.555 106.554L178.021 104.981C180.66 103.502 183.21 101.933 185.783 100.42C190.508 97.6414 194.792 95.0096 197.428 93.2675C202.604 89.8483 209.818 84.9445 215.005 81.2136H215.006Z" fill="#1E6A97"/>
<path d="M227.636 72.3056V78.629L225.935 81.4653V81.0907L225.801 80.1951L225.275 77.8582L224.234 76.8977L223.783 76.4819L221.793 76.1742L221.214 76.4101C224.039 73.7763 226.802 70.5586 226.802 70.5586L227.636 72.3056Z" fill="#2495CC"/>
<path d="M194.157 99.2586C194.157 99.2586 188.611 102.784 178.757 108.72L178.732 107.76L178.554 106.553L178.02 104.98L177.716 104.624L176.69 103.733L175.114 103.419L172.811 103.946L170.446 105.546L168.26 108.12L166.79 110.84L166.494 111.386L165.487 114.295L165.404 115.183L165.33 115.986C161.965 117.495 160.125 118.048 160.125 118.048L159.424 115.893L159.628 113.284L159.783 111.308C161.869 108.647 164.734 106.4 168.6 104.173C168.603 104.172 168.606 104.171 168.609 104.169C168.643 104.15 168.679 104.13 168.716 104.109C171.126 102.822 172.621 101.683 179.07 100.712C182.108 100.254 184.622 102.553 186.088 102.362C186.088 102.361 193.271 99.3736 193.271 99.3736C194.046 99.2734 194.155 99.2606 194.155 99.2606L194.157 99.2586Z" fill="#155E82"/>
<path d="M165.176 115.272C165.231 115.254 165.309 115.223 165.406 115.181L165.332 115.984L165.32 116.115V118.934L163.06 120.064L161.649 120.546L157.083 121.064L149.771 119.954L145.567 118.11L136.693 112.94L133.992 110.82L132.73 107.565L132.878 104.621C132.878 104.621 134.178 107.321 135.736 108.653C137.295 109.984 145.537 114.608 147.95 115.532C149.457 116.11 154.978 116.124 159.425 115.891C162.096 115.751 164.382 115.522 165.175 115.272L165.176 115.272Z" fill="#0179BB"/>
<path d="M212.786 86.2658L212.464 88.2881V91.782L210.096 93.3344L178.962 111.818L178.809 110.881L178.765 108.865L178.758 108.72L178.733 107.76C183.155 105.206 188.068 102.381 192.937 99.4149C192.937 99.4139 192.938 99.4139 192.938 99.4139C199.875 95.1866 206.489 90.9572 210.57 87.9233C211.341 87.3502 212.079 86.7977 212.786 86.2668V86.2658Z" fill="#0F4E73"/>
<path d="M227.636 72.3056V78.629L225.797 84.162L225.935 81.0907L225.801 80.1951L225.275 77.8582L224.234 76.8977C226.066 75.0839 227.099 73.6515 227.637 72.3056H227.636Z" fill="#0F4E73"/>
<path d="M149.204 109.614C149.204 109.614 152.127 107.561 155.135 105.231C158.142 102.901 176.727 94.5033 176.727 94.5033L177.939 94.2742L177.02 96.3545C177.02 96.3545 161.428 108.282 159.201 108.947C157.369 109.162 150.235 110.001 150.235 110.001L149.205 109.613L149.204 109.614Z" fill="#0179BB"/>
<path d="M135.115 101.403C135.143 100.848 137.816 97.2236 140.155 94.5239C142.494 91.8243 153.505 79.8343 153.505 79.8343C153.505 79.8343 138.336 89.6792 136.034 92.5272L134.499 94.9998L134.67 100.876L135.115 101.403Z" fill="#0179BB"/>
<path d="M162.021 119.612L165.32 117.904V118.933L163.06 120.064L161.649 120.545L157.084 121.063L149.771 119.953L145.567 118.109L136.693 112.939L133.992 110.819L132.73 107.564L132.879 104.62L133.028 107.113L134.846 110.497L137.5 112.512L145.974 117.43L149.036 118.707L154.114 119.908L157.316 120.167L162.021 119.612Z" fill="#0C0B14"/>
<path d="M212.464 90.4588V91.782L210.097 93.3344L178.961 111.818L178.808 110.881L210.171 91.9855L212.464 90.4588Z" fill="#0C0B14"/>
<path d="M225.797 84.1619L225.911 81.6127L226.507 80.8744L227.286 79.6829L225.797 84.1619Z" fill="#0C0B14"/>
<path d="M150.754 111.482V112.33C150.754 112.33 156.134 112.739 159.688 112.533C163.243 112.326 163.876 109.336 163.876 109.336L160.759 111.507L150.754 111.481V111.482Z" fill="#627EFA"/>
<path d="M150.754 110.331C150.754 110.331 151.568 110.409 153.761 110.34C161.459 110.099 163.71 109.448 163.877 109.336C163.599 109.617 162.807 110.81 161.74 111.572C161.611 111.664 160.892 111.923 159.946 111.978C155.774 112.222 150.754 111.874 150.754 111.874V110.331Z" fill="#C3D5E1"/>
<path d="M151.819 110.367V111.085L161.423 110.596L161.699 109.782L151.819 110.367Z" fill="#EDF4F7"/>
<path d="M134.98 101.963C134.98 101.963 134.968 104.195 134.987 104.436C135.006 104.677 137.687 107.209 137.687 107.209L146.188 111.999C147.867 112.591 149.604 112.738 149.604 112.738C149.604 112.738 149.808 111.201 149.827 110.731C149.726 110.699 149.378 110.168 149.26 110.126C146.757 109.218 142.105 106.395 142.105 106.395L135.638 102.229L134.981 101.962L134.98 101.963Z" fill="#2283B2"/>
<path d="M138.777 106.583C138.777 106.583 145.96 110.909 147.279 111.372C148.011 111.629 148.983 111.829 149.703 111.955C149.758 111.502 149.816 110.731 149.826 110.489C149.895 110.576 149.403 110.188 149.259 110.128C146.807 109.09 142.104 106.397 142.104 106.397C142.104 106.397 137.76 103.59 136.07 102.51C136.066 103.02 136.068 103.688 136.077 103.809C136.096 104.05 138.777 106.583 138.777 106.583Z" fill="#0C0B14"/>
<path d="M226.321 65.5978L226.405 67.2269L226.077 70.131L225.745 71.7541L226.802 70.5586L226.968 66.9073L226.709 66.3548L226.321 65.5978Z" fill="#C10E24"/>
<path d="M208.945 89.6054C208.945 89.6054 200.74 95.2288 196.026 98.1133C191.311 100.997 179.107 108.536 179.107 108.536C179.107 108.536 178.547 106.255 181.887 103.925C185.228 101.595 198.587 93.2675 198.587 93.2675C198.587 93.2675 205.449 88.6931 208.945 89.6064V89.6054Z" fill="#2495CC"/>
<path d="M136.22 108.8L134.847 109.336L137.5 111.352L145.974 116.27L149.037 117.546L147.526 115.356L144.889 114.274L137.825 110.072L136.22 108.8Z" fill="#0C0B14"/>
<path d="M159.426 115.891C158.824 115.92 153.892 116.031 153.892 116.031L155.784 118.047H160.127L159.426 115.892V115.891Z" fill="#0C0B14"/>
<path d="M134.586 102.111V101.051C134.586 100.815 134.278 99.7836 134.208 98.7847C134.138 97.7859 134.398 95.448 134.499 95.0007C133.796 96.1352 133.557 96.5187 133.557 96.5187V98.2548C133.557 98.2548 133.738 99.933 133.96 100.64C134.183 101.347 134.586 102.11 134.586 102.11V102.111Z" fill="#C3D5E1"/>
<path d="M133.38 105.25C133.621 105.139 134.072 104.214 134.072 104.214L132.685 101.851L132.858 104.329L133.38 105.25Z" fill="#0C0B14"/>
<path d="M138.777 106.583L137.687 107.21L146.187 111.999L147.278 111.372L138.777 106.583Z" fill="#2495CC"/>
<path d="M134.987 104.436L136.077 103.808L136.07 102.509L135.637 102.23L134.98 101.963L134.987 104.436Z" fill="#0A3955"/>
<g style="mix-blend-mode:screen">
<path d="M207.154 66.985L209.817 66.5918L218.393 66.9251L217.52 64.9372L212.269 61.282C210.605 61.0726 206.785 60.002 199.402 60.6341C187.254 66.4915 175.757 73.9622 174.684 74.9915C173.48 76.1457 167.106 84.5808 162.813 91.261C162.816 91.263 162.82 91.2649 162.822 91.2659C162.908 91.3121 162.991 91.3573 163.07 91.3996C163.073 91.4016 163.077 91.4036 163.081 91.4055C163.165 91.4507 163.245 91.493 163.319 91.5333C163.388 91.5697 163.452 91.6041 163.512 91.6366C163.53 91.6464 163.546 91.6542 163.563 91.6631C163.61 91.6887 163.656 91.7132 163.698 91.7349C163.707 91.7398 163.716 91.7437 163.724 91.7486C163.759 91.7673 163.791 91.783 163.82 91.7988C163.844 91.8115 163.868 91.8243 163.888 91.8342C163.894 91.8371 163.9 91.8401 163.906 91.843C163.995 91.8892 164.044 91.9158 164.044 91.9158C164.044 91.9158 165.008 92.3355 166.239 92.8468C166.59 92.9932 166.963 93.1466 167.341 93.3C167.625 93.415 167.912 93.53 168.195 93.6421C169.232 94.0521 170.217 94.4168 170.81 94.579C171.241 94.697 171.738 94.7678 172.239 94.8081C172.489 94.8277 172.741 94.8405 172.987 94.8474C173.233 94.8543 173.472 94.8553 173.698 94.8523C174.603 94.8415 175.292 94.7727 175.292 94.7727L176.614 94.523L177.937 94.2733L185.76 79.5718L188.405 76.7985L194.001 72.7205L200.071 69.2255L206.809 67.0342L207.153 66.9831L207.154 66.985Z" fill="#14131C"/>
</g>
<path d="M181.512 92.133L183.031 91.0467L183.576 90.8343L186.651 92.7927L187.255 93.7817L187.489 95.3724L186.983 95.741H185.738L182.603 95.1256L181.513 94.5387C181.513 94.5387 181.403 93.2498 181.431 93.2115C181.459 93.1741 181.513 92.134 181.513 92.134L181.512 92.133Z" fill="#1E6A97"/>
<path d="M182.125 92.6806C182.052 92.6806 180.666 93.218 180.622 93.2043C180.578 93.1895 180.199 93.9598 180.199 93.9598L180.651 94.4972L181.91 94.7497L182.125 92.6796V92.6806Z" fill="#0F4E73"/>
<path d="M187.391 94.7068L186.794 95.0194L185.717 95.1246L183.303 94.5957L181.756 94.0235L181.43 93.2105L181.512 92.133L183.031 91.0467L183.576 90.8333L186.651 92.7927L187.255 93.7817L187.391 94.7068Z" fill="#1E6A97"/>
<path d="M185.936 93.8446L183.706 93.2872L181.92 92.5489L181.512 92.133L183.031 91.0467L183.576 90.8333L186.651 92.7927L187.255 93.7817L186.739 93.9606L185.936 93.8446Z" fill="#2495CC"/>
</g>
<defs>
<linearGradient id="paint0_linear_3418_3165" x1="1.4074" y1="57.4248" x2="0.0799282" y2="57.4248" gradientUnits="userSpaceOnUse">
<stop stop-color="#12252D"/>
<stop offset="0.24" stop-color="#68C4F6"/>
<stop offset="1" stop-color="#A7CAE4"/>
</linearGradient>
<linearGradient id="paint1_linear_3418_3165" x1="53.5322" y1="92.4469" x2="52.2047" y2="92.4469" gradientUnits="userSpaceOnUse">
<stop stop-color="#12252D"/>
<stop offset="0.24" stop-color="#68C4F6"/>
<stop offset="1" stop-color="#A7CAE4"/>
</linearGradient>
<linearGradient id="paint2_linear_3418_3165" x1="106.815" y1="65.8054" x2="105.488" y2="65.8054" gradientUnits="userSpaceOnUse">
<stop stop-color="#12252D"/>
<stop offset="0.24" stop-color="#68C4F6"/>
<stop offset="1" stop-color="#A7CAE4"/>
</linearGradient>
<linearGradient id="paint3_linear_3418_3165" x1="25.126" y1="1.6199" x2="81.7894" y2="58.3253" gradientUnits="userSpaceOnUse">
<stop stop-color="#329FD2"/>
<stop offset="1" stop-color="#0079BC"/>
</linearGradient>
<linearGradient id="paint4_linear_3418_3165" x1="37.8513" y1="132.76" x2="43.2776" y2="132.76" gradientUnits="userSpaceOnUse">
<stop stop-color="#309DD1"/>
<stop offset="0.53" stop-color="#168AC6"/>
<stop offset="0.82" stop-color="#0A80C0"/>
<stop offset="0.99" stop-color="#0F4E73"/>
</linearGradient>
<linearGradient id="paint5_linear_3418_3165" x1="38.3504" y1="134.815" x2="40.7187" y2="134.815" gradientUnits="userSpaceOnUse">
<stop stop-color="#F5F2EE"/>
<stop offset="0.69" stop-color="#F2EFEB"/>
<stop offset="0.99" stop-color="#EDEBE7"/>
</linearGradient>
<linearGradient id="paint6_linear_3418_3165" x1="39.0642" y1="130.02" x2="41.5233" y2="130.02" gradientUnits="userSpaceOnUse">
<stop stop-color="#F5F2EE"/>
<stop offset="0.69" stop-color="#F2EFEB"/>
<stop offset="0.99" stop-color="#EDEBE7"/>
</linearGradient>
<linearGradient id="paint7_linear_3418_3165" x1="102.939" y1="134.406" x2="108.365" y2="134.406" gradientUnits="userSpaceOnUse">
<stop stop-color="#309DD1"/>
<stop offset="0.53" stop-color="#168AC6"/>
<stop offset="0.82" stop-color="#0A80C0"/>
<stop offset="0.99" stop-color="#0F4E73"/>
</linearGradient>
<linearGradient id="paint8_linear_3418_3165" x1="103.438" y1="136.461" x2="105.806" y2="136.461" gradientUnits="userSpaceOnUse">
<stop stop-color="#F5F2EE"/>
<stop offset="0.69" stop-color="#F2EFEB"/>
<stop offset="0.99" stop-color="#EDEBE7"/>
</linearGradient>
<linearGradient id="paint9_linear_3418_3165" x1="104.152" y1="131.665" x2="106.611" y2="131.665" gradientUnits="userSpaceOnUse">
<stop stop-color="#F5F2EE"/>
<stop offset="0.69" stop-color="#F2EFEB"/>
<stop offset="0.99" stop-color="#EDEBE7"/>
</linearGradient>
<linearGradient id="paint10_linear_3418_3165" x1="211.669" y1="91.3374" x2="220.67" y2="75.6892" gradientUnits="userSpaceOnUse">
<stop offset="0.41" stop-color="#0C0B14"/>
<stop offset="0.53" stop-color="#16151D"/>
<stop offset="0.71" stop-color="#302F36"/>
</linearGradient>
<linearGradient id="paint11_linear_3418_3165" x1="164.742" y1="118.49" x2="173.742" y2="102.842" gradientUnits="userSpaceOnUse">
<stop offset="0.41" stop-color="#0C0B14"/>
<stop offset="0.53" stop-color="#16151D"/>
<stop offset="0.71" stop-color="#302F36"/>
</linearGradient>
<clipPath id="clip0_3418_3165">
<rect width="16.6026" height="15.8304" fill="white" transform="translate(178.382 37.0664)"/>
</clipPath>
<clipPath id="clip1_3418_3165">
<rect width="18.5332" height="17.761" fill="white" transform="translate(122.783 66.7967)"/>
</clipPath>
<clipPath id="clip2_3418_3165">
<rect width="32.047" height="27.7998" fill="white" transform="translate(35.5222 123.555)"/>
</clipPath>
<clipPath id="clip3_3418_3165">
<rect width="32.047" height="27.7998" fill="white" transform="translate(100.61 125.2)"/>
</clipPath>
<clipPath id="clip4_3418_3165">
<rect width="105.407" height="76.0632" fill="white" transform="translate(132.049 49.4218)"/>
</clipPath>
</defs>
</svg>
